<svg xmlns="http://www.w3.org/2000/svg" width="410.097" height="207.436"><path fill="#231F20" d="M3.167 173.199H14.68v2.317h-3.866v23.793H7.03v-23.793H3.167zm17.634 8.177h2.907c.837 0 1.593.182 2.277.552.743.376 1.333.854 1.761 1.436a3.12 3.12 0 01.65 1.931v14.015h-3.824v-15.684h-3.771v15.684h-3.864v-26.042h3.864v8.108zm21.82 9.824h-7.688v5.792h3.864v-2.865h3.744v1.253c0 .718-.201 1.367-.609 1.948a4.209 4.209 0 01-1.735 1.429c-.683.371-1.44.553-2.277.553h-2.257c-.851 0-1.621-.205-2.298-.615-.682-.347-1.245-.871-1.688-1.571-.408-.666-.609-1.339-.609-2.016v-9.813c0-.587.228-1.208.69-1.868a5.069 5.069 0 011.762-1.498 4.725 4.725 0 012.256-.552h2.144c.743 0 1.506.193 2.277.58.75.416 1.34.929 1.774 1.549.436.615.65 1.265.65 1.948v5.746zm-7.688-2.318h3.864v-5.188h-3.864v5.188zm23.706-15.683h3.823v19.652l-5.726 6.458-5.745-6.423v-19.687h3.863v18.968l1.882 2.154 1.903-2.154zm10.301 11.144v14.966h-3.865v-17.933c1.145 0 2.07.284 2.78.848.683.581 1.044 1.288 1.085 2.119m14.419 6.857H75.67v5.792h3.865v-2.865h3.744v1.253c0 .718-.201 1.367-.609 1.948a4.209 4.209 0 01-1.735 1.429c-.683.371-1.44.553-2.277.553h-2.257c-.851 0-1.621-.205-2.297-.615-.684-.347-1.246-.871-1.688-1.571-.409-.666-.61-1.339-.61-2.016v-9.813c0-.587.229-1.208.69-1.868a5.078 5.078 0 011.762-1.498 4.726 4.726 0 012.257-.552h2.143c.743 0 1.507.193 2.277.58.75.416 1.339.929 1.775 1.549.435.615.649 1.265.649 1.948v5.746zm-7.689-2.318h3.865v-5.188H75.67v5.188zm11.032-15.683h3.723v8.24h3.865v2.249h-3.865v13.372h5.988v2.317H91.39c-.891 0-1.681-.182-2.371-.541a4.701 4.701 0 01-1.688-1.446 3.421 3.421 0 01-.629-2.016v-11.687h-1.567v-2.317h1.567v-8.171zm10.762 8.177h8.225c.837 0 1.6.182 2.296.552a4.622 4.622 0 011.722 1.464c.462.615.69 1.247.69 1.902v14.015h-3.865v-15.684h-3.73v15.684h-3.864v-15.615h-1.474v-2.318zm23.06 8.354h-3.771v7.33h3.771v-7.33zm-2.934-2.317l2.934.068v-3.793h-6.223a3.546 3.546 0 011.039-1.435 4.348 4.348 0 011.607-.649 13.907 13.907 0 012.177-.165h5.184v15.621h1.841v2.317h-8.592a4.56 4.56 0 01-2.258-.581c-.73-.37-1.319-.859-1.761-1.469-.435-.615-.65-1.236-.65-1.874v-4.27c0-.61.242-1.22.723-1.818.442-.58 1.045-1.048 1.802-1.4.757-.371 1.482-.552 2.177-.552m9.37-6.037h15.913a4.81 4.81 0 012.297.552c.744.376 1.333.854 1.762 1.436a3.12 3.12 0 01.65 1.931v14.015h-3.825v-15.684h-3.771v15.684h-3.864v-15.615h-3.81v15.615h-3.785v-15.615h-1.567v-2.319zm34.532 9.824h-7.689v5.792h3.865v-2.865h3.744v1.253c0 .718-.201 1.367-.61 1.948a4.2 4.2 0 01-1.734 1.429c-.683.371-1.44.553-2.277.553h-2.257c-.851 0-1.621-.205-2.298-.615-.683-.347-1.245-.871-1.688-1.571-.408-.666-.609-1.339-.609-2.016v-9.813c0-.587.228-1.208.69-1.868a5.069 5.069 0 011.762-1.498 4.726 4.726 0 012.257-.552h2.143c.743 0 1.506.193 2.277.58.749.416 1.339.929 1.774 1.549.436.615.65 1.265.65 1.948v5.746zm-7.689-2.318h3.865v-5.188h-3.865v5.188zm21.68 4.066v2.506c0 .7-.214 1.345-.65 1.937-.435.592-1.038 1.07-1.815 1.435a4.677 4.677 0 01-2.237.553h-6.757v-4.823h3.864v2.506h3.77v-5.81h-2.706a5.39 5.39 0 01-2.531-.614 4.56 4.56 0 01-1.768-1.606c-.422-.632-.629-1.366-.629-2.204v-1.463c0-.804.247-1.481.75-2.039.509-.609 1.165-1.076 1.949-1.401a7.274 7.274 0 012.571-.483h6.189v4.846h-3.825v-2.597h-3.77v5.177h2.973c.751 0 1.494.193 2.237.587.751.427 1.326.951 1.735 1.571.437.59.65 1.227.65 1.922m13.992-1.748h-7.689v5.792h3.864v-2.865h3.744v1.253c0 .718-.201 1.367-.609 1.948a4.209 4.209 0 01-1.735 1.429c-.683.371-1.44.553-2.277.553h-2.257c-.851 0-1.621-.205-2.297-.615-.683-.347-1.246-.871-1.688-1.571-.409-.666-.61-1.339-.61-2.016v-9.813c0-.587.228-1.208.69-1.868a5.078 5.078 0 011.762-1.498 4.725 4.725 0 012.256-.552h2.144c.743 0 1.507.193 2.277.58.75.416 1.34.929 1.775 1.549.435.615.65 1.265.65 1.948v5.746zm-7.689-2.318h3.864v-5.188h-3.864v5.188zm27.53.285v6.202a3.03 3.03 0 01-.648 1.919c-.43.581-1.02 1.06-1.77 1.435a5.155 5.155 0 01-2.277.519h-6.777v-4.887h3.865v2.638h3.783v-9.579h-2.705c-.918 0-1.762-.193-2.533-.587-.676-.353-1.265-.888-1.761-1.6a4.015 4.015 0 01-.649-2.216v-5.837c0-.779.254-1.464.763-2.056.496-.621 1.146-1.099 1.942-1.43.906-.325 1.761-.489 2.58-.489h6.188v4.971h-3.824v-2.585h-3.783v9.579h2.986c.764 0 1.508.193 2.244.586.717.364 1.299.854 1.729 1.476.432.613.647 1.263.647 1.941m14.152 2.033h-7.689v5.792h3.865v-2.865h3.744v1.253c0 .718-.201 1.367-.609 1.948a4.212 4.212 0 01-1.734 1.429c-.684.371-1.441.553-2.277.553h-2.258c-.85 0-1.621-.205-2.297-.615-.684-.347-1.246-.871-1.689-1.571-.406-.666-.607-1.339-.607-2.016v-9.813c0-.587.227-1.208.689-1.868a5.051 5.051 0 011.762-1.498 4.725 4.725 0 012.256-.552h2.145c.742 0 1.506.193 2.277.58.75.416 1.338.929 1.773 1.549.436.615.65 1.265.65 1.948v5.746zm-7.689-2.318h3.863v-5.188h-3.863v5.188zm21.679-1.469h-3.824v-3.725h-3.77v13.372h3.77v-4.106h3.824v2.421c0 .712-.213 1.36-.648 1.953-.416.586-1.012 1.076-1.775 1.464-.77.393-1.527.586-2.271.586H230.5a4.29 4.29 0 01-2.256-.614 4.9 4.9 0 01-1.654-1.606c-.396-.644-.59-1.305-.59-1.982v-9.812c0-.684.207-1.304.631-1.874a4.884 4.884 0 011.727-1.497 4.722 4.722 0 012.258-.553h2.223c.77 0 1.514.193 2.236.581a4.51 4.51 0 011.736 1.538c.436.619.648 1.274.648 1.952v1.902zm15.487 11.896h-8.453c-1.246 0-2.305-.387-3.182-1.167s-1.318-1.675-1.318-2.688v-14.077h3.863v15.684h3.771v-15.684h3.824v15.684h1.494v2.248zm13.24-17.933v6.036h-3.725v-3.719h-3.85v15.684h-3.865v-14.083c0-.609.221-1.23.668-1.868a4.863 4.863 0 011.797-1.498 4.59 4.59 0 012.236-.552h6.739zm6.336 2.967v14.966h-3.865v-17.933c1.146 0 2.07.284 2.779.848.684.581 1.045 1.288 1.086 2.119m3.771-11.144h3.723v8.24h3.865v2.249h-3.865v13.372h5.988v2.317h-5.025c-.889 0-1.68-.182-2.371-.541a4.695 4.695 0 01-1.686-1.446 3.414 3.414 0 01-.629-2.016v-11.687h-1.568v-2.317h1.568v-8.171zm23.125 8.177l.08 22.141c0 .679-.221 1.316-.67 1.914-.43.581-1.018 1.07-1.768 1.47a4.894 4.894 0 01-2.25.535h-6.832v-5.188h3.865v3.001h3.83v-5.871h-3.006c-.832 0-1.588-.182-2.266-.553a4.847 4.847 0 01-1.795-1.435c-.42-.599-.629-1.242-.629-1.931v-14.083h3.865v15.684h3.75v-15.684h3.826zm8.758-8.177h6.752c.811 0 1.566.182 2.277.552.729.388 1.324.877 1.781 1.464.42.604.627 1.253.627 1.953v22.142h-3.822v-23.793h-3.75v23.793h-3.865v-26.111zM333.82 191.2h-7.689v5.792h3.865v-2.865h3.744v1.253c0 .718-.201 1.367-.609 1.948a4.212 4.212 0 01-1.734 1.429c-.684.371-1.441.553-2.277.553h-2.258c-.85 0-1.621-.205-2.297-.615-.684-.347-1.246-.871-1.688-1.571-.408-.666-.609-1.339-.609-2.016v-9.813c0-.587.227-1.208.689-1.868a5.069 5.069 0 011.762-1.498 4.725 4.725 0 012.256-.552h2.145c.742 0 1.506.193 2.277.58.75.416 1.338.929 1.773 1.549.436.615.65 1.265.65 1.948v5.746zm-7.69-2.318h3.865v-5.188h-3.865v5.188zm11.032-15.683h3.725v8.24h3.863v2.249h-3.863v13.372h5.986v2.317h-5.023c-.891 0-1.68-.182-2.371-.541a4.695 4.695 0 01-1.686-1.446 3.402 3.402 0 01-.631-2.016v-11.687h-1.566v-2.317h1.566v-8.171zm30.855 12.033v10.143c0 .644-.229 1.292-.689 1.953a4.333 4.333 0 01-1.723 1.429 5.02 5.02 0 01-2.297.553h-10.006a4.29 4.29 0 01-2.256-.615c-.717-.438-1.254-.956-1.607-1.571a3.786 3.786 0 01-.59-2.016v-13.73h3.865v15.684h3.75v-15.684c1.246.302 2.189.831 2.818 1.6.67.734 1.004 1.51 1.004 2.318v11.766h3.865v-15.684c1.279.232 2.244.7 2.887 1.4.651.688.979 1.508.979 2.454m2.492 9.875v-9.813c0-.644.207-1.265.629-1.868a4.939 4.939 0 011.754-1.498c.645-.37 1.387-.552 2.238-.552h2.217c.797 0 1.561.193 2.289.586.73.41 1.32.923 1.762 1.532.422.632.631 1.287.631 1.953v9.927c0 .734-.209 1.384-.631 1.953a4.532 4.532 0 01-1.773 1.429 4.807 4.807 0 01-2.299.553h-2.289a4.303 4.303 0 01-2.258-.615 4.987 4.987 0 01-1.641-1.605c-.422-.632-.629-1.294-.629-1.982m3.864 1.953h3.752v-13.365h-3.752v13.365zm21.72-15.684v6.036h-3.725v-3.719h-3.85v15.684h-3.865v-14.083c0-.609.221-1.23.668-1.868a4.873 4.873 0 011.795-1.498 4.604 4.604 0 012.238-.552h6.739zm10.18 5.974v-5.974h3.824v4.504l-1.969 2.638 1.969 2.448v9.881c-1.012-.229-1.914-.724-2.699-1.504-.75-.734-1.125-1.543-1.125-2.42v-7.29h-3.783v9.676h-3.865v-26.11h3.865v14.151h3.783z"/><path fill-rule="evenodd" clip-rule="evenodd" fill="#0087CC" d="M107.464 35.176S85.293 12.239 74.971 5.741C66.251.251 61.729.048 58.677.117c-3.052-.069-7.576.134-16.296 5.624C32.06 12.239 9.888 35.176 9.888 35.176S35.882 16.445 43.91 10.711c6.056-4.326 12.142-4.953 14.766-5.001 2.624.048 8.71.675 14.766 5.001 8.027 5.734 34.022 24.465 34.022 24.465"/><path fill="#003472" stroke="#005DAB" stroke-width=".216" stroke-miterlimit="2.613" d="M107.464 35.176S85.293 12.239 74.971 5.741C66.251.251 61.729.048 58.677.117c-3.052-.069-7.576.134-16.296 5.624C32.06 12.239 9.888 35.176 9.888 35.176S35.882 16.445 43.91 10.711c6.056-4.326 12.142-4.953 14.766-5.001 2.624.048 8.71.675 14.766 5.001 8.027 5.734 34.022 24.465 34.022 24.465z"/><path fill-rule="evenodd" clip-rule="evenodd" fill="#003472" d="M93.12 49.811S77.467 33.618 70.181 29.03c-6.157-3.876-9.35-4.019-11.504-3.97-2.155-.049-5.349.094-11.505 3.97-7.287 4.588-22.94 20.781-22.94 20.781S42.583 36.587 48.25 32.539c4.276-3.054 8.573-3.497 10.425-3.53 1.853.033 6.149.476 10.424 3.53 5.669 4.048 24.021 17.272 24.021 17.272"/><path fill="none" stroke="#005DAB" stroke-width=".216" stroke-miterlimit="2.613" d="M93.12 49.811S77.467 33.618 70.181 29.03c-6.157-3.876-9.35-4.019-11.504-3.97-2.155-.049-5.349.094-11.505 3.97-7.287 4.588-22.94 20.781-22.94 20.781S42.583 36.587 48.25 32.539c4.276-3.054 8.573-3.497 10.425-3.53 1.853.033 6.149.476 10.424 3.53 5.669 4.048 24.021 17.272 24.021 17.272z"/><path fill-rule="evenodd" clip-rule="evenodd" fill="#003472" d="M95.304 52.013s7.041 5.632 2.464 22.882c-4.576 17.25-11.617 32.035-20.418 46.117-8.463 13.541-12.982 16.663-18.674 16.883-5.693-.22-10.212-3.342-18.675-16.883C31.2 106.93 24.159 92.145 19.583 74.895c-4.577-17.25 2.464-22.882 2.464-22.882L5.853 40.396S-.835 45.325.221 61.87s9.153 37.667 21.122 60.198c11.969 22.53 22.882 34.852 28.163 39.075 2.473 1.979 5.208 2.741 7.417 2.991a14.53 14.53 0 001.827.108h.027c1.503.003 2.478-.195 2.478-.195v-.012c2.011-.329 4.381-1.125 6.59-2.893 5.281-4.224 16.194-16.545 28.163-39.075 11.969-22.531 20.066-43.652 21.122-60.198 1.056-16.545-5.633-21.474-5.633-21.474L95.304 52.013z"/><path fill="none" stroke="#005DAB" stroke-width=".216" stroke-miterlimit="2.613" d="M95.304 52.013s7.041 5.632 2.464 22.882c-4.576 17.25-11.617 32.035-20.418 46.117-8.463 13.541-12.982 16.663-18.674 16.883-5.693-.22-10.212-3.342-18.675-16.883C31.2 106.93 24.159 92.145 19.583 74.895c-4.577-17.25 2.464-22.882 2.464-22.882L5.853 40.396S-.835 45.325.221 61.87s9.153 37.667 21.122 60.198c11.969 22.53 22.882 34.852 28.163 39.075 2.473 1.979 5.208 2.741 7.417 2.991a14.53 14.53 0 001.827.108h.027c1.503.003 2.478-.195 2.478-.195v-.012c2.011-.329 4.381-1.125 6.59-2.893 5.281-4.224 16.194-16.545 28.163-39.075 11.969-22.531 20.066-43.652 21.122-60.198 1.056-16.545-5.633-21.474-5.633-21.474L95.304 52.013z"/><path fill-rule="evenodd" clip-rule="evenodd" fill="#FFF" d="M10.078 57.998c1.745 0 3.168-1.423 3.168-3.168s-1.423-3.169-3.168-3.169S6.91 53.084 6.91 54.83s1.423 3.168 3.168 3.168m1.543 21.814c1.745 0 3.168-1.423 3.168-3.168s-1.423-3.168-3.168-3.168-3.168 1.423-3.168 3.168 1.423 3.168 3.168 3.168m7.194 20.654c1.745 0 3.168-1.423 3.168-3.168s-1.423-3.168-3.168-3.168-3.168 1.423-3.168 3.168 1.423 3.168 3.168 3.168m10.593 21.602a3.175 3.175 0 003.168-3.168c0-1.746-1.423-3.168-3.168-3.168s-3.168 1.422-3.168 3.168a3.175 3.175 0 003.168 3.168m12.321 19.682c1.745 0 3.168-1.423 3.168-3.168s-1.423-3.168-3.168-3.168-3.168 1.423-3.168 3.168 1.423 3.168 3.168 3.168m16.947 15.168c1.745 0 3.168-1.423 3.168-3.168s-1.423-3.168-3.168-3.168-3.168 1.423-3.168 3.168 1.423 3.168 3.168 3.168"/><path fill-rule="evenodd" clip-rule="evenodd" fill="#003472" d="M20.639 42.156c1.745 0 3.168-1.423 3.168-3.168s-1.423-3.168-3.168-3.168-3.168 1.423-3.168 3.168 1.423 3.168 3.168 3.168"/><path fill="none" stroke="#005DAB" stroke-width=".216" stroke-miterlimit="2.613" d="M20.639 42.156c1.745 0 3.168-1.423 3.168-3.168s-1.423-3.168-3.168-3.168-3.168 1.423-3.168 3.168 1.423 3.168 3.168 3.168z"/><path fill-rule="evenodd" clip-rule="evenodd" fill="#003472" d="M38.241 27.723c1.745 0 3.168-1.423 3.168-3.168s-1.423-3.168-3.168-3.168-3.168 1.423-3.168 3.168 1.423 3.168 3.168 3.168"/><path fill="none" stroke="#005DAB" stroke-width=".216" stroke-miterlimit="2.613" d="M38.241 27.723c1.745 0 3.168-1.423 3.168-3.168s-1.423-3.168-3.168-3.168-3.168 1.423-3.168 3.168 1.423 3.168 3.168 3.168z"/><path fill-rule="evenodd" clip-rule="evenodd" fill="#003472" d="M97.031 42.156c1.745 0 3.168-1.423 3.168-3.168s-1.423-3.168-3.168-3.168-3.168 1.423-3.168 3.168 1.423 3.168 3.168 3.168"/><path fill="none" stroke="#005DAB" stroke-width=".216" stroke-miterlimit="2.613" d="M97.031 42.156c1.745 0 3.168-1.423 3.168-3.168s-1.423-3.168-3.168-3.168-3.168 1.423-3.168 3.168 1.423 3.168 3.168 3.168z"/><path fill-rule="evenodd" clip-rule="evenodd" fill="#003472" d="M79.429 27.723c1.745 0 3.168-1.423 3.168-3.168s-1.423-3.168-3.168-3.168-3.168 1.423-3.168 3.168 1.423 3.168 3.168 3.168"/><path fill="none" stroke="#005DAB" stroke-width=".216" stroke-miterlimit="2.613" d="M79.429 27.723c1.745 0 3.168-1.423 3.168-3.168s-1.423-3.168-3.168-3.168-3.168 1.423-3.168 3.168 1.423 3.168 3.168 3.168z"/><path fill-rule="evenodd" clip-rule="evenodd" fill="#0087CC" d="M58.676 18.57a3.174 3.174 0 003.168-3.168c0-1.746-1.423-3.169-3.168-3.169s-3.168 1.423-3.168 3.169a3.174 3.174 0 003.168 3.168"/><path fill="#003472" stroke="#005DAB" stroke-width=".216" stroke-miterlimit="2.613" d="M58.676 18.57a3.174 3.174 0 003.168-3.168c0-1.746-1.423-3.169-3.168-3.169s-3.168 1.423-3.168 3.169a3.174 3.174 0 003.168 3.168z"/><path fill-rule="evenodd" clip-rule="evenodd" fill="#FFCA05" d="M58.676 43.594l8.058 21.311 22.688 1.027L71.676 80.08l6.002 21.996-19.002-12.664-19.002 12.664 6.002-22.11L27.93 65.932l22.688-1.027z"/><path fill-rule="evenodd" clip-rule="evenodd" fill="#FFF" d="M107.292 57.998c1.745 0 3.168-1.423 3.168-3.168s-1.423-3.169-3.168-3.169-3.168 1.424-3.168 3.169 1.422 3.168 3.168 3.168m-1.543 21.814c1.745 0 3.168-1.423 3.168-3.168s-1.423-3.168-3.168-3.168-3.168 1.423-3.168 3.168 1.422 3.168 3.168 3.168m-7.195 20.654c1.745 0 3.168-1.423 3.168-3.168s-1.423-3.168-3.168-3.168-3.168 1.423-3.168 3.168 1.423 3.168 3.168 3.168m-10.593 21.602a3.175 3.175 0 003.168-3.168c0-1.746-1.423-3.168-3.168-3.168s-3.168 1.422-3.168 3.168a3.175 3.175 0 003.168 3.168M75.64 141.75c1.745 0 3.168-1.423 3.168-3.168s-1.423-3.168-3.168-3.168-3.168 1.423-3.168 3.168 1.423 3.168 3.168 3.168"/><path fill-rule="evenodd" clip-rule="evenodd" fill="#003472" d="M218.978 87.333h91.279v15.213h-91.279zm0 30.426h91.279v15.212h-91.279zm0 30.426h91.279v15.213h-91.279zm99.838-60.853h91.279v15.213h-76.066v45.64h76.066v15.213h-91.279V92.086zM117.24 148.185h76.066v-15.214H117.24V87.332h91.279v15.213h-76.066v15.214h76.066v45.639H117.24z"/></svg>